<?xml version="1.0" encoding="UTF-8"?>
<svg width="128" height="128" viewBox="0 0 128 128" xmlns="http://www.w3.org/2000/svg">
  <!-- Background -->
  <rect width="128" height="128" fill="#FF6B35" rx="16"/>

  <!-- Main "C" shape representing Convex -->
  <path d="M 64 24
           A 32 32 0 0 1 96 56
           L 86 56
           A 22 22 0 0 0 64 34
           A 22 22 0 0 0 42 56
           L 42 72
           A 22 22 0 0 0 64 94
           A 22 22 0 0 0 86 72
           L 96 72
           A 32 32 0 0 1 64 104
           A 32 32 0 0 1 32 72
           L 32 56
           A 32 32 0 0 1 64 24 Z"
        fill="#FFFFFF"/>

  <!-- Connection dots representing real-time sync -->
  <circle cx="100" cy="32" r="4" fill="#FFFFFF" opacity="0.9"/>
  <circle cx="108" cy="44" r="3" fill="#FFFFFF" opacity="0.8"/>
  <circle cx="108" cy="84" r="3" fill="#FFFFFF" opacity="0.8"/>
  <circle cx="100" cy="96" r="4" fill="#FFFFFF" opacity="0.9"/>
</svg>
